<svg height="512" viewBox="0 0 64 64" width="512" xmlns="http://www.w3.org/2000/svg"><path d="m61.234 18.322a3 3 0 0 0 -4.243 0l-6.364 6.365a1 1 0 1 1 -1.414-1.415l.694-.694.013-.013 1.414-1.414a3 3 0 1 0 -4.242-4.243l-2.828 2.828a1 1 0 1 1 -1.415-1.414l2.829-2.828a3 3 0 1 0 -4.243-4.243l-2.829 2.829a1.022 1.022 0 0 1 -1.414 0 1 1 0 0 1 0-1.413l5.071-5.067a3 3 0 0 0 0-4.243 3.071 3.071 0 0 0 -4.243 0l-8.745 8.743a3.073 3.073 0 0 0 -3.4.569l-5.658 5.656a3 3 0 0 0 0 4.243l19.8 19.8a3 3 0 0 0 4.242 0l.707-.707 1.415 1.414-4.243 4.243-12.723-12.732a3.071 3.071 0 0 0 -4.243 0l-7.909 7.908a2.993 2.993 0 0 0 -3.405.577l-10.607 10.607a3 3 0 0 0 0 4.242l2.829 2.829a3 3 0 0 0 4.242 0l10.607-10.607a3 3 0 0 0 .577-3.405l5.787-5.787 12.728 12.728a3 3 0 0 0 4.242 0l8.486-8.486a3 3 0 0 0 0-4.242l-3.536-3.536.708-.707a3 3 0 0 0 .579-3.407l10.734-10.735a3 3 0 0 0 0-4.243zm-18.385 22.628a1.022 1.022 0 0 1 -1.413 0l-19.8-19.8a1 1 0 0 1 0-1.415l5.657-5.656a1 1 0 0 1 1.414 0l19.8 19.8a1 1 0 0 1 0 1.415zm-23.334 7.778-10.607 10.606a1 1 0 0 1 -1.414 0l-2.828-2.828a1 1 0 0 1 0-1.414l10.606-10.607a1 1 0 0 1 1.415 0l2.828 2.828a1 1 0 0 1 0 1.415zm31.819-6.364a1 1 0 0 1 0 1.414l-8.485 8.486a1.025 1.025 0 0 1 -1.414 0l-12.728-12.728a2 2 0 0 0 -2.828 0l-5.657 5.656-1.414-1.414 7.778-7.778a1.023 1.023 0 0 1 1.414 0l12.729 12.729a2 2 0 0 0 2.827 0l4.244-4.244a2 2 0 0 0 0-2.828l-1.414-1.414 1.414-1.415zm8.486-21.213-10.607 10.606-18.385-18.385 8.608-8.606a1.021 1.021 0 0 1 1.413 0 1 1 0 0 1 0 1.413l-5.071 5.071a3 3 0 0 0 0 4.243 3.073 3.073 0 0 0 4.243 0l2.828-2.828a1 1 0 0 1 1.415 1.414l-2.829 2.828a3 3 0 0 0 4.243 4.243l2.828-2.829a1.023 1.023 0 0 1 1.414 0 1 1 0 0 1 0 1.415l-2.12 2.122a3 3 0 0 0 4.242 4.242l6.363-6.364a1 1 0 1 1 1.415 1.414z"/><path d="m49.213 10.714a3 3 0 1 1 2.121-.877 2.988 2.988 0 0 1 -2.121.877zm0-4a1 1 0 1 0 .707 1.707 1 1 0 0 0 -.707-1.706z"/><path d="m54.87 16.373a3 3 0 0 1 -2.121-5.122 3.073 3.073 0 0 1 4.243 0 3 3 0 0 1 0 4.243 2.978 2.978 0 0 1 -2.122.879zm0-4a1 1 0 0 0 -.707 1.706 1.022 1.022 0 0 0 1.414 0 1 1 0 0 0 -.707-1.706z"/></svg>