<svg width="1120px" height="35px" preserveAspectRatio="none" viewBox="0 0 1120 35" version="1.1" xmlns="http://www.w3.org/2000/svg" xmlns:xlink="http://www.w3.org/1999/xlink">
    <!-- Generator: Sketch 46.2 (44496) - http://www.bohemiancoding.com/sketch -->
    <desc>Created with Sketch.</desc>
    <defs>
        <linearGradient x1="50%" y1="100%" x2="50%" y2="0%" id="linearGradient-1">
            <stop stop-color="#ba42ec" offset="0%"></stop>
            <stop stop-color="#8f42ec" offset="100%"></stop>
        </linearGradient>
    </defs>
    <g id="Page-1" stroke="none" stroke-width="1" fill="none" fill-rule="evenodd">
        <path d="M1119.9998,6.53401851 L1119.9998,9.0054943 C1102.63526,8.08409754 1085.98778,14.7089 1068.48605,21.6797291 C1066.63132,22.4180536 1064.76658,23.1614075 1062.89282,23.8947025 C1061.61394,24.3946307 1060.33706,24.8955647 1059.04917,25.3804045 C1048.91226,29.265158 1038.52399,32.7485608 1027.9274,34.2242039 C1023.7112,34.8086269 1019.51303,35.0772 1015.31986,35.0772 C993.038098,35.0772 971.160927,27.5068594 949.895656,20.1437325 C940.591974,16.9228675 930.973831,13.594372 921.491887,10.9679889 C918.18202,10.0516216 914.838102,9.20365495 911.464141,8.44118908 C909.194804,7.9211431 906.915452,7.44032689 904.618073,6.98968743 C876.357515,1.47035994 846.133069,1.08309165 816.201053,5.94858957 C806.39964,7.53890427 796.509095,9.70458899 786.940024,11.7998613 C778.232219,13.7080378 769.335135,15.6504145 760.351925,17.2004936 C758.531248,17.5183553 756.700555,17.8150934 754.870865,18.08769 C751.77331,18.5634768 748.670747,18.9799159 745.562176,19.3168896 C714.935138,22.6413615 683.714226,18.6771425 653.525833,14.8426835 C633.68065,12.3209132 613.427868,9.75387768 593.217147,9.25394953 C591.337383,9.20365495 589.453613,9.17448409 587.573849,9.16945463 C581.107339,9.13525432 574.649843,9.33743854 568.217384,9.83837258 C562.74734,10.2699001 557.25226,10.2699001 551.781214,9.83837258 C545.348755,9.33743854 538.892261,9.13525432 532.425751,9.16945463 C530.545987,9.17448409 528.661215,9.20365495 526.781451,9.25394953 C506.572734,9.75387768 486.317948,12.3209132 466.473767,14.8426835 C436.284372,18.6771425 405.064462,22.6413615 374.436422,19.3168896 C371.328853,18.9799159 368.22629,18.5634768 365.127734,18.08769 C363.298043,17.8150934 361.467351,17.5183553 359.647675,17.2004936 C350.665466,15.6504145 341.76638,13.7080378 333.059576,11.7998613 C323.490505,9.70458899 313.59996,7.53890427 303.798547,5.94858957 C273.865529,1.08309165 243.642085,1.47035994 215.382528,6.98968743 C213.083147,7.44032689 210.804796,7.9211431 208.535459,8.44118908 C205.161498,9.20365495 201.816579,10.0516216 198.506712,10.9679889 C189.026771,13.594372 179.407626,16.9228675 170.103944,20.1437325 C148.838673,27.5068594 126.961502,35.0772 104.679736,35.0772 C100.486569,35.0772 96.2883958,34.8086269 92.0711943,34.2242039 C81.4756131,32.7485608 71.0873368,29.265158 60.9504301,25.3804045 C59.6625362,24.8955647 58.384657,24.3946307 57.1067779,23.8947025 C55.2330224,23.1614075 53.3682803,22.4180536 51.5135528,21.6797291 C34.0118159,14.7089 17.3633337,8.08409754 -0.0002,9.0054943 L-0.0002,6.53401851 C17.9902556,5.67196936 35.456941,12.6226807 52.4208871,19.3762372 C55.2820946,20.5149066 58.1633316,21.6596113 61.0635965,22.7751451 C62.3404742,23.2700438 63.6233607,23.7558895 64.9112546,24.2367057 C73.9285148,27.5812954 83.1230357,30.4742398 92.411695,31.7678165 C118.46701,35.3940559 144.310013,26.4516791 169.299762,17.8050345 C178.6425,14.5700869 188.296697,11.2305266 197.850747,8.58000213 C199.182706,8.21285167 200.514664,7.85576014 201.856638,7.50973341 C204.041851,6.94945176 206.237079,6.42035275 208.446328,5.91941871 C225.671659,2.03466515 243.711186,0.0772 262.022113,0.0772 C275.991656,0.0772 290.124439,1.21788113 304.18812,3.50125518 C314.058635,5.10665826 323.983229,7.27636655 333.582345,9.37767421 C343.837426,11.6228244 354.354892,13.9263163 364.926438,15.5508313 C366.731091,15.8334868 368.536747,16.0960245 370.342402,16.3283855 C371.797542,16.5174931 373.247674,16.6905065 374.697807,16.8494374 C405.044433,20.1437325 436.117126,16.1996314 466.167316,12.3842844 C484.522308,10.0566511 503.232822,7.67872321 521.962365,6.93033982 C523.738977,6.85489795 525.519596,6.79655623 527.295207,6.75732645 C535.488255,6.56821882 543.687312,6.72614381 551.84631,7.36086145 C557.276295,7.78233005 562.722304,7.78233005 568.154291,7.36086145 C576.312288,6.72614381 584.511345,6.56821882 592.704393,6.75732645 C594.480004,6.79655623 596.260623,6.85489795 598.037235,6.93033982 C616.766778,7.67872321 635.476291,10.0566511 653.832284,12.3842844 C683.882474,16.1996314 714.955167,20.1437325 745.301793,16.8494374 C746.751926,16.6905065 748.202058,16.5174931 749.657198,16.3283855 C751.462853,16.0960245 753.268509,15.8334868 755.073162,15.5508313 C765.644708,13.9263163 776.161173,11.6228244 786.416253,9.37767421 C796.015369,7.27636655 805.939964,5.10665826 815.81148,3.50125518 C829.875161,1.21788113 844.006943,0.0772 857.976485,0.0772 C876.287412,0.0772 894.32694,2.03466515 911.55227,5.91941871 C913.762521,6.42035275 915.957749,6.94945176 918.142962,7.50973341 C919.484936,7.85576014 920.815893,8.21285167 922.147852,8.58000213 C931.702903,11.2305266 941.3571,14.5700869 950.699838,17.8050345 C975.688585,26.4516791 1001.53259,35.3940559 1027.58791,31.7678165 C1036.87656,30.4742398 1046.07109,27.5812954 1055.08835,24.2367057 C1056.37624,23.7558895 1057.65812,23.2700438 1058.935,22.7751451 C1061.83627,21.6596113 1064.71751,20.5149066 1067.57771,19.3762372 C1084.54266,12.6226807 1102.00934,5.67196936 1119.9998,6.53401851" id="Fill-1" fill="url(#linearGradient-1)"></path>
    </g>
</svg>