<svg width="1120px" height="50px" viewBox="0 0 1120 50" version="1.1" xmlns="http://www.w3.org/2000/svg" xmlns:xlink="http://www.w3.org/1999/xlink">
    <!-- Generator: Sketch 46.2 (44496) - http://www.bohemiancoding.com/sketch -->
    <desc>Created with Sketch.</desc>
    <defs>
        <linearGradient x1="50%" y1="100%" x2="50%" y2="0%" id="linearGradient-1">
            <stop stop-color="#ba42ec" offset="0%"></stop>
            <stop stop-color="#8f42ec" offset="100%"></stop>
        </linearGradient>
    </defs>
    <g id="Page-1" stroke="none" stroke-width="1" fill="none" fill-rule="evenodd">
        <path d="M1119.9998,47.5819957 L1119.9998,49.9381239 C1118.69688,49.9811713 1117.39397,49.9993469 1116.09305,49.9993469 C1096.72658,49.9993469 1077.68558,45.8390539 1059.04917,40.7785917 C1057.72723,40.4208199 1056.40528,40.0573084 1055.08835,39.6899705 C1050.52564,38.4224635 1045.99297,37.1080826 1041.47933,35.8070942 C1024.6626,30.9446501 1007.27003,25.9214956 989.827377,23.3491738 C966.065434,19.8479844 941.933948,20.8141596 918.142962,23.7825177 C915.913684,24.0608909 913.688412,24.3526567 911.464141,24.6683377 C896.759517,26.7221775 882.208119,29.4609493 867.981198,32.2877293 L864.192626,33.0463203 C840.554866,37.7576201 816.116929,42.6344134 791.724059,40.9574776 C782.667741,40.3356817 771.050658,38.8232827 754.870865,33.8431757 C753.184385,33.3246935 751.447831,32.7689036 749.657198,32.1700663 C739.481234,28.7674077 727.626801,24.0513248 713.676287,17.477507 C712.493548,16.9217172 711.303798,16.3563612 710.121059,15.7957882 C698.917584,10.4713019 687.330544,4.97271279 674.969367,3.09775894 C663.642711,1.38255881 646.58062,1.23715422 614.861977,15.4332334 C610.892139,17.2096565 606.871226,19.0941764 602.979503,20.9174734 C601.337088,21.6865871 599.688664,22.4585707 598.037235,23.2315108 C596.438885,23.9709697 594.83052,24.7113851 593.217147,25.4403213 C586.266927,28.602871 579.178503,31.6142764 571.887782,34.0498032 C564.187458,36.6269082 555.812142,36.6269082 548.111818,34.0498032 C540.821097,31.6142764 533.732673,28.602871 526.781451,25.4403213 C525.16908,24.7113851 523.560715,23.9709697 521.962365,23.2315108 C520.309935,22.4585707 518.662512,21.6865871 517.020097,20.9174734 C513.128374,19.0941764 509.107461,17.2096565 505.136622,15.4332334 C473.41898,1.23715422 456.355888,1.38255881 445.030233,3.09775894 C432.669056,4.97271279 421.081015,10.4713019 409.878541,15.7957882 C408.694801,16.3563612 407.506052,16.9217172 406.322312,17.477507 C392.371797,24.0513248 380.518366,28.7674077 370.342402,32.1700663 C368.551769,32.7689036 366.815215,33.3246935 365.127734,33.8431757 C348.948942,38.8232827 337.331859,40.3356817 328.27454,40.9574776 C303.882671,42.6344134 279.444734,37.7576201 255.806974,33.0463203 L252.018402,32.2877293 C237.792483,29.4609493 223.240083,26.7221775 208.535459,24.6683377 C206.311188,24.3526567 204.085916,24.0608909 201.856638,23.7825177 C178.065652,20.8141596 153.934166,19.8479844 130.172223,23.3491738 C112.729573,25.9214956 95.3369968,30.9446501 78.5212686,35.8070942 C74.0066297,37.1080826 69.4739642,38.4224635 64.9112546,39.6899705 C63.594318,40.0573084 62.272374,40.4208199 60.9504301,40.7785917 C42.3140246,45.8390539 23.2730241,49.9993469 3.90654501,49.9993469 C2.6046305,49.9993469 1.30271598,49.9811713 -0.0002,49.9381239 L-0.0002,47.5819957 C19.3071922,48.1664838 38.4022722,44.3218718 57.1067779,39.3647234 C58.4297233,39.0165177 59.7466599,38.6625724 61.0635965,38.3000175 C66.6818583,36.7684863 72.2660701,35.1527735 77.8052156,33.5504533 C94.7050675,28.668877 112.182769,23.6179809 129.792665,21.0207872 C155.927097,17.1675657 182.441086,18.6560495 208.446328,22.2701187 C210.765739,22.5953658 213.074133,22.9340054 215.382528,23.2879508 C227.930981,25.2097785 240.347239,27.5611237 252.521142,29.9842145 L256.309713,30.7380225 C279.780227,35.4206241 304.049917,40.2601096 328.097279,38.6109155 C336.098044,38.0599086 346.136807,36.801011 359.647675,32.9994464 C361.349177,32.5182721 363.110768,31.9950069 364.926438,31.4296509 C375.989707,27.9944676 389.210148,22.9158298 405.231708,15.3672274 C406.415449,14.8114375 407.595184,14.2451249 408.783932,13.6845519 C420.153651,8.28545013 431.908938,2.70172277 444.645668,0.769372367 C466.86334,-2.59406526 489.203191,5.6987791 506.182159,13.2990385 C510.173028,15.0840711 514.202954,16.9743307 518.104692,18.8024107 C521.14316,20.2248884 524.206665,21.6617153 527.295207,23.0660175 C528.996709,23.8446973 530.708226,24.6118978 532.425751,25.3609227 C537.580331,27.6185202 542.80902,29.743149 548.131848,31.5568799 C555.802127,34.1722492 564.197473,34.1722492 571.868754,31.5568799 C577.19058,29.743149 582.419269,27.6185202 587.573849,25.3609227 C589.290373,24.6118978 591.00189,23.8446973 592.704393,23.0660175 C595.791934,21.6617153 598.855439,20.2248884 601.893907,18.8024107 C605.796646,16.9743307 609.826572,15.0840711 613.817441,13.2990385 C630.796409,5.6987791 653.13626,-2.59406526 675.353932,0.769372367 C688.090662,2.70172277 699.845949,8.28545013 711.215668,13.6845519 C712.404416,14.2451249 713.584151,14.8114375 714.766891,15.3672274 C730.788451,22.9158298 744.009893,27.9944676 755.073162,31.4296509 C756.888832,31.9950069 758.650423,32.5182721 760.351925,32.9994464 C773.862793,36.801011 783.901556,38.0599086 791.902321,38.6109155 C815.948682,40.2601096 840.219373,35.4206241 863.688886,30.7380225 L867.478458,29.9842145 C879.652361,27.5611237 892.067618,25.2097785 904.618073,23.2879508 C906.925467,22.9340054 909.234863,22.5953658 911.55227,22.2701187 C937.558514,18.6560495 964.072503,17.1675657 990.205933,21.0207872 C1007.81683,23.6179809 1025.29453,28.668877 1042.19438,33.5504533 C1047.73353,35.1527735 1053.31774,36.7684863 1058.935,38.3000175 C1060.25294,38.6625724 1061.56988,39.0165177 1062.89282,39.3647234 C1081.59733,44.3218718 1100.69241,48.1664838 1119.9998,47.5819957" id="Fill-4" fill="url(#linearGradient-1)"></path>
    </g>
</svg>